<?xml version="1.0" encoding="UTF-8"?>
<svg xmlns="http://www.w3.org/2000/svg" xmlns:xlink="http://www.w3.org/1999/xlink" width="909pt" height="374pt" viewBox="0 0 909 374" version="1.1">
<g id="surface1">
<path style="fill-rule:nonzero;fill:rgb(56.862745%,48.627451%,43.529412%);fill-opacity:1;stroke-width:0.900297;stroke-linecap:butt;stroke-linejoin:miter;stroke:rgb(0%,0%,0%);stroke-opacity:1;stroke-miterlimit:4;" d="M 150.109916 112.680168 L 219.562655 112.680168 L 219.562655 144.89827 L 278.141321 144.89827 L 278.141321 112.680168 L 419.491491 112.680168 L 419.491491 222.739942 L 284.160814 222.739942 L 284.160814 190.521839 L 219.561494 190.521839 L 219.561494 222.739942 L 150.107596 222.739942 Z M 150.109916 112.680168 " transform="matrix(3.366667,0,0,3.369369,-503.842708,-378.106419)"/>
<path style="fill-rule:nonzero;fill:rgb(100%,100%,100%);fill-opacity:1;stroke-width:1.1817;stroke-linecap:butt;stroke-linejoin:miter;stroke:rgb(0%,0%,0%);stroke-opacity:1;stroke-miterlimit:4;" d="M 157.933632 153.699992 L 179.769957 153.699992 C 181.91414 153.699992 183.653388 155.439004 183.653388 157.582627 L 183.653388 179.419985 C 183.653388 181.564766 181.91414 183.302619 179.769957 183.302619 L 157.933632 183.302619 C 155.788289 183.302619 154.050201 181.564766 154.050201 179.419985 L 154.050201 157.582627 C 154.050201 155.439004 155.788289 153.699992 157.933632 153.699992 Z M 157.933632 153.699992 " transform="matrix(3.366667,0,0,3.369369,-503.842708,-378.106419)"/>
<path style="fill-rule:nonzero;fill:rgb(100%,100%,100%);fill-opacity:1;stroke-width:1.1817;stroke-linecap:butt;stroke-linejoin:miter;stroke:rgb(0%,0%,0%);stroke-opacity:1;stroke-miterlimit:4;" d="M 191.292621 153.699992 L 213.130105 153.699992 C 215.274288 153.699992 217.013537 155.439004 217.013537 157.582627 L 217.013537 179.419985 C 217.013537 181.564766 215.274288 183.302619 213.130105 183.302619 L 191.292621 183.302619 C 189.148438 183.302619 187.41035 181.564766 187.41035 179.419985 L 187.41035 157.582627 C 187.41035 155.439004 189.148438 153.699992 191.292621 153.699992 Z M 191.292621 153.699992 " transform="matrix(3.366667,0,0,3.369369,-503.842708,-378.106419)"/>
<path style="fill-rule:nonzero;fill:rgb(100%,100%,100%);fill-opacity:1;stroke-width:1.1817;stroke-linecap:butt;stroke-linejoin:miter;stroke:rgb(0%,0%,0%);stroke-opacity:1;stroke-miterlimit:4;" d="M 224.663212 153.699992 L 246.499536 153.699992 C 248.644879 153.699992 250.382967 155.439004 250.382967 157.582627 L 250.382967 179.419985 C 250.382967 181.564766 248.644879 183.302619 246.499536 183.302619 L 224.663212 183.302619 C 222.519028 183.302619 220.77978 181.564766 220.77978 179.419985 L 220.77978 157.582627 C 220.77978 155.439004 222.519028 153.699992 224.663212 153.699992 Z M 224.663212 153.699992 " transform="matrix(3.366667,0,0,3.369369,-503.842708,-378.106419)"/>
<path style="fill-rule:nonzero;fill:rgb(100%,100%,100%);fill-opacity:1;stroke-width:1.1817;stroke-linecap:butt;stroke-linejoin:miter;stroke:rgb(0%,0%,0%);stroke-opacity:1;stroke-miterlimit:4;" d="M 258.032642 153.699992 L 279.870127 153.699992 C 282.01431 153.699992 283.753558 155.439004 283.753558 157.582627 L 283.753558 179.419985 C 283.753558 181.564766 282.01431 183.302619 279.870127 183.302619 L 258.032642 183.302619 C 255.888459 183.302619 254.150371 181.564766 254.150371 179.419985 L 254.150371 157.582627 C 254.150371 155.439004 255.888459 153.699992 258.032642 153.699992 Z M 258.032642 153.699992 " transform="matrix(3.366667,0,0,3.369369,-503.842708,-378.106419)"/>
<path style="fill-rule:nonzero;fill:rgb(100%,100%,100%);fill-opacity:1;stroke-width:1.1817;stroke-linecap:butt;stroke-linejoin:miter;stroke:rgb(0%,0%,0%);stroke-opacity:1;stroke-miterlimit:4;" d="M 324.763382 153.699992 L 346.599706 153.699992 C 348.74505 153.699992 350.483137 155.439004 350.483137 157.582627 L 350.483137 179.419985 C 350.483137 181.564766 348.74505 183.302619 346.599706 183.302619 L 324.763382 183.302619 C 322.618038 183.302619 320.87995 181.564766 320.87995 179.419985 L 320.87995 157.582627 C 320.87995 155.439004 322.618038 153.699992 324.763382 153.699992 Z M 324.763382 153.699992 " transform="matrix(3.366667,0,0,3.369369,-503.842708,-378.106419)"/>
<path style="fill-rule:nonzero;fill:rgb(100%,100%,100%);fill-opacity:1;stroke-width:1.1817;stroke-linecap:butt;stroke-linejoin:miter;stroke:rgb(0%,0%,0%);stroke-opacity:1;stroke-miterlimit:4;" d="M 358.132812 153.699992 L 379.970297 153.699992 C 382.11448 153.699992 383.852568 155.439004 383.852568 157.582627 L 383.852568 179.419985 C 383.852568 181.564766 382.11448 183.302619 379.970297 183.302619 L 358.132812 183.302619 C 355.988629 183.302619 354.250541 181.564766 354.250541 179.419985 L 354.250541 157.582627 C 354.250541 155.439004 355.988629 153.699992 358.132812 153.699992 Z M 358.132812 153.699992 " transform="matrix(3.366667,0,0,3.369369,-503.842708,-378.106419)"/>
<path style="fill-rule:nonzero;fill:rgb(100%,100%,100%);fill-opacity:1;stroke-width:1.1817;stroke-linecap:butt;stroke-linejoin:miter;stroke:rgb(0%,0%,0%);stroke-opacity:1;stroke-miterlimit:4;" d="M 391.503403 153.699992 L 413.339728 153.699992 C 415.483911 153.699992 417.223159 155.439004 417.223159 157.582627 L 417.223159 179.419985 C 417.223159 181.564766 415.483911 183.302619 413.339728 183.302619 L 391.503403 183.302619 C 389.35806 183.302619 387.619972 181.564766 387.619972 179.419985 L 387.619972 157.582627 C 387.619972 155.439004 389.35806 153.699992 391.503403 153.699992 Z M 391.503403 153.699992 " transform="matrix(3.366667,0,0,3.369369,-503.842708,-378.106419)"/>
<path style="fill-rule:nonzero;fill:rgb(100%,100%,100%);fill-opacity:1;stroke-width:1.1817;stroke-linecap:butt;stroke-linejoin:miter;stroke:rgb(0%,0%,0%);stroke-opacity:1;stroke-miterlimit:4;" d="M 157.933632 116.669462 L 179.769957 116.669462 C 181.91414 116.669462 183.653388 118.408475 183.653388 120.553257 L 183.653388 142.389455 C 183.653388 144.534237 181.91414 146.273249 179.769957 146.273249 L 157.933632 146.273249 C 155.788289 146.273249 154.050201 144.534237 154.050201 142.389455 L 154.050201 120.553257 C 154.050201 118.408475 155.788289 116.669462 157.933632 116.669462 Z M 157.933632 116.669462 " transform="matrix(3.366667,0,0,3.369369,-503.842708,-378.106419)"/>
<path style="fill-rule:nonzero;fill:rgb(100%,100%,100%);fill-opacity:1;stroke-width:1.1817;stroke-linecap:butt;stroke-linejoin:miter;stroke:rgb(0%,0%,0%);stroke-opacity:1;stroke-miterlimit:4;" d="M 291.403233 116.669462 L 313.239558 116.669462 C 315.384901 116.669462 317.122989 118.408475 317.122989 120.553257 L 317.122989 142.389455 C 317.122989 144.534237 315.384901 146.273249 313.239558 146.273249 L 291.403233 146.273249 C 289.25905 146.273249 287.519802 144.534237 287.519802 142.389455 L 287.519802 120.553257 C 287.519802 118.408475 289.25905 116.669462 291.403233 116.669462 Z M 291.403233 116.669462 " transform="matrix(3.366667,0,0,3.369369,-503.842708,-378.106419)"/>
<path style="fill-rule:nonzero;fill:rgb(100%,100%,100%);fill-opacity:1;stroke-width:1.1817;stroke-linecap:butt;stroke-linejoin:miter;stroke:rgb(0%,0%,0%);stroke-opacity:1;stroke-miterlimit:4;" d="M 324.763382 116.669462 L 346.599706 116.669462 C 348.74505 116.669462 350.483137 118.408475 350.483137 120.553257 L 350.483137 142.389455 C 350.483137 144.534237 348.74505 146.273249 346.599706 146.273249 L 324.763382 146.273249 C 322.618038 146.273249 320.87995 144.534237 320.87995 142.389455 L 320.87995 120.553257 C 320.87995 118.408475 322.618038 116.669462 324.763382 116.669462 Z M 324.763382 116.669462 " transform="matrix(3.366667,0,0,3.369369,-503.842708,-378.106419)"/>
<path style="fill-rule:nonzero;fill:rgb(100%,100%,100%);fill-opacity:1;stroke-width:1.1817;stroke-linecap:butt;stroke-linejoin:miter;stroke:rgb(0%,0%,0%);stroke-opacity:1;stroke-miterlimit:4;" d="M 358.132812 116.669462 L 379.970297 116.669462 C 382.11448 116.669462 383.852568 118.408475 383.852568 120.553257 L 383.852568 142.389455 C 383.852568 144.534237 382.11448 146.273249 379.970297 146.273249 L 358.132812 146.273249 C 355.988629 146.273249 354.250541 144.534237 354.250541 142.389455 L 354.250541 120.553257 C 354.250541 118.408475 355.988629 116.669462 358.132812 116.669462 Z M 358.132812 116.669462 " transform="matrix(3.366667,0,0,3.369369,-503.842708,-378.106419)"/>
<path style="fill-rule:nonzero;fill:rgb(100%,100%,100%);fill-opacity:1;stroke-width:1.1817;stroke-linecap:butt;stroke-linejoin:miter;stroke:rgb(0%,0%,0%);stroke-opacity:1;stroke-miterlimit:4;" d="M 157.933632 188.240255 L 179.769957 188.240255 C 181.91414 188.240255 183.653388 189.978108 183.653388 192.12289 L 183.653388 213.960248 C 183.653388 216.10503 181.91414 217.842883 179.769957 217.842883 L 157.933632 217.842883 C 155.788289 217.842883 154.050201 216.10503 154.050201 213.960248 L 154.050201 192.12289 C 154.050201 189.978108 155.788289 188.240255 157.933632 188.240255 Z M 157.933632 188.240255 " transform="matrix(3.366667,0,0,3.369369,-503.842708,-378.106419)"/>
<path style="fill-rule:nonzero;fill:rgb(100%,100%,100%);fill-opacity:1;stroke-width:1.1817;stroke-linecap:butt;stroke-linejoin:miter;stroke:rgb(0%,0%,0%);stroke-opacity:1;stroke-miterlimit:4;" d="M 291.403233 188.240255 L 313.239558 188.240255 C 315.384901 188.240255 317.122989 189.978108 317.122989 192.12289 L 317.122989 213.960248 C 317.122989 216.10503 315.384901 217.842883 313.239558 217.842883 L 291.403233 217.842883 C 289.25905 217.842883 287.519802 216.10503 287.519802 213.960248 L 287.519802 192.12289 C 287.519802 189.978108 289.25905 188.240255 291.403233 188.240255 Z M 291.403233 188.240255 " transform="matrix(3.366667,0,0,3.369369,-503.842708,-378.106419)"/>
<path style="fill-rule:nonzero;fill:rgb(100%,100%,100%);fill-opacity:1;stroke-width:1.1817;stroke-linecap:butt;stroke-linejoin:miter;stroke:rgb(0%,0%,0%);stroke-opacity:1;stroke-miterlimit:4;" d="M 324.763382 188.240255 L 346.599706 188.240255 C 348.74505 188.240255 350.483137 189.978108 350.483137 192.12289 L 350.483137 213.960248 C 350.483137 216.10503 348.74505 217.842883 346.599706 217.842883 L 324.763382 217.842883 C 322.618038 217.842883 320.87995 216.10503 320.87995 213.960248 L 320.87995 192.12289 C 320.87995 189.978108 322.618038 188.240255 324.763382 188.240255 Z M 324.763382 188.240255 " transform="matrix(3.366667,0,0,3.369369,-503.842708,-378.106419)"/>
<path style="fill-rule:nonzero;fill:rgb(100%,100%,100%);fill-opacity:1;stroke-width:1.1817;stroke-linecap:butt;stroke-linejoin:miter;stroke:rgb(0%,0%,0%);stroke-opacity:1;stroke-miterlimit:4;" d="M 358.132812 188.240255 L 379.970297 188.240255 C 382.11448 188.240255 383.852568 189.978108 383.852568 192.12289 L 383.852568 213.960248 C 383.852568 216.10503 382.11448 217.842883 379.970297 217.842883 L 358.132812 217.842883 C 355.988629 217.842883 354.250541 216.10503 354.250541 213.960248 L 354.250541 192.12289 C 354.250541 189.978108 355.988629 188.240255 358.132812 188.240255 Z M 358.132812 188.240255 " transform="matrix(3.366667,0,0,3.369369,-503.842708,-378.106419)"/>
<path style="fill-rule:nonzero;fill:rgb(100%,100%,100%);fill-opacity:1;stroke-width:1.1817;stroke-linecap:butt;stroke-linejoin:miter;stroke:rgb(0%,0%,0%);stroke-opacity:1;stroke-miterlimit:4;" d="M 197.192602 188.240255 L 219.030087 188.240255 C 221.17427 188.240255 222.913518 189.978108 222.913518 192.12289 L 222.913518 213.960248 C 222.913518 216.10503 221.17427 217.842883 219.030087 217.842883 L 197.192602 217.842883 C 195.048419 217.842883 193.310331 216.10503 193.310331 213.960248 L 193.310331 192.12289 C 193.310331 189.978108 195.048419 188.240255 197.192602 188.240255 Z M 197.192602 188.240255 " transform="matrix(3.366667,0,0,3.369369,-523.686449,-378.106419)"/>
<path style="fill-rule:nonzero;fill:rgb(66.666667%,0%,0%);fill-opacity:1;stroke-width:2.5;stroke-linecap:butt;stroke-linejoin:miter;stroke:rgb(100%,0%,0%);stroke-opacity:1;stroke-miterlimit:4;" d="M 256.857512 427.595644 C 257.434969 495.511205 312.467304 550.432678 380.413838 550.821767 C 379.849721 482.911732 324.817386 427.990258 256.857512 427.595644 Z M 256.857512 427.595644 " transform="matrix(0.249949,-0.0973543,0.103532,0.235034,24.38433,213.362122)"/>
<path style="fill-rule:nonzero;fill:rgb(66.666667%,0%,0%);fill-opacity:1;stroke-width:2.5;stroke-linecap:butt;stroke-linejoin:miter;stroke:rgb(100%,0%,0%);stroke-opacity:1;stroke-miterlimit:4;" d="M 257.201574 677.253225 C 325.122876 676.684526 380.041272 621.634562 380.430302 553.687215 C 312.509001 554.255915 257.596481 609.291692 257.201574 677.253225 Z M 257.201574 677.253225 " transform="matrix(0.249949,-0.0973543,0.103532,0.235034,24.38433,213.362122)"/>
<path style="fill-rule:nonzero;fill:rgb(66.666667%,0%,0%);fill-opacity:1;stroke-width:2.5;stroke-linecap:butt;stroke-linejoin:miter;stroke:rgb(100%,0%,0%);stroke-opacity:1;stroke-miterlimit:4;" d="M 506.062751 427.261035 C 438.154789 427.835259 383.242269 482.871037 382.853239 550.818384 C 450.761201 550.244159 505.687061 495.213907 506.062751 427.261035 Z M 506.062751 427.261035 " transform="matrix(0.249949,-0.0973543,0.103532,0.235034,24.38433,213.362122)"/>
<path style="fill-rule:nonzero;fill:rgb(66.666667%,0%,0%);fill-opacity:1;stroke-width:2.5;stroke-linecap:butt;stroke-linejoin:miter;stroke:rgb(100%,0%,0%);stroke-opacity:1;stroke-miterlimit:4;" d="M 382.856363 553.678307 C 383.42048 621.588342 438.452816 676.509816 506.412689 676.90443 C 505.835233 608.988869 450.802897 554.067395 382.856363 553.678307 Z M 382.856363 553.678307 " transform="matrix(0.249949,-0.0973543,0.103532,0.235034,24.38433,213.362122)"/>
<path style="fill-rule:nonzero;fill:rgb(66.666667%,0%,0%);fill-opacity:1;stroke-width:2.5;stroke-linecap:butt;stroke-linejoin:miter;stroke:rgb(100%,0%,0%);stroke-opacity:1;stroke-miterlimit:4;" d="M 256.854193 427.600885 C 257.430089 495.516925 312.465796 550.423803 380.419879 550.813393 C 379.849508 482.910692 324.808276 427.990475 256.854193 427.600885 Z M 256.854193 427.600885 " transform="matrix(0.103532,-0.235034,0.249949,0.0973543,-0.596003,341.939914)"/>
<path style="fill-rule:nonzero;fill:rgb(66.666667%,0%,0%);fill-opacity:1;stroke-width:2.5;stroke-linecap:butt;stroke-linejoin:miter;stroke:rgb(100%,0%,0%);stroke-opacity:1;stroke-miterlimit:4;" d="M 257.204857 677.2568 C 325.122932 676.676728 380.041186 621.640977 380.429347 553.68506 C 312.511273 554.265131 257.607204 609.295006 257.204857 677.2568 Z M 257.204857 677.2568 " transform="matrix(0.103532,-0.235034,0.249949,0.0973543,-0.596003,341.939914)"/>
<path style="fill-rule:nonzero;fill:rgb(66.666667%,0%,0%);fill-opacity:1;stroke-width:2.5;stroke-linecap:butt;stroke-linejoin:miter;stroke:rgb(100%,0%,0%);stroke-opacity:1;stroke-miterlimit:4;" d="M 506.060491 427.256696 C 438.156602 427.830891 383.238348 482.866642 382.850186 550.822559 C 450.773787 550.255827 505.67233 495.212613 506.060491 427.256696 Z M 506.060491 427.256696 " transform="matrix(0.103532,-0.235034,0.249949,0.0973543,-0.596003,341.939914)"/>
<path style="fill-rule:nonzero;fill:rgb(66.666667%,0%,0%);fill-opacity:1;stroke-width:2.5;stroke-linecap:butt;stroke-linejoin:miter;stroke:rgb(100%,0%,0%);stroke-opacity:1;stroke-miterlimit:4;" d="M 382.854129 553.680887 C 383.424501 621.583588 438.451547 676.509681 506.40563 676.89927 C 505.849444 608.990694 450.808213 554.070477 382.854129 553.680887 Z M 382.854129 553.680887 " transform="matrix(0.103532,-0.235034,0.249949,0.0973543,-0.596003,341.939914)"/>
<path style="fill-rule:nonzero;fill:rgb(100%,100%,100%);fill-opacity:1;stroke-width:1.1817;stroke-linecap:butt;stroke-linejoin:miter;stroke:rgb(0%,0%,0%);stroke-opacity:1;stroke-miterlimit:4;" d="M 197.192602 117.920392 L 219.030087 117.920392 C 221.17427 117.920392 222.913518 119.658245 222.913518 121.803027 L 222.913518 143.640385 C 222.913518 145.784007 221.17427 147.52302 219.030087 147.52302 L 197.192602 147.52302 C 195.048419 147.52302 193.310331 145.784007 193.310331 143.640385 L 193.310331 121.803027 C 193.310331 119.658245 195.048419 117.920392 197.192602 117.920392 Z M 197.192602 117.920392 " transform="matrix(3.366667,0,0,3.369369,-523.686449,-378.106419)"/>
<path style="fill-rule:nonzero;fill:rgb(66.666667%,0%,0%);fill-opacity:1;stroke-width:2.5;stroke-linecap:butt;stroke-linejoin:miter;stroke:rgb(100%,0%,0%);stroke-opacity:1;stroke-miterlimit:4;" d="M 256.858293 427.593759 C 257.43575 495.50932 312.468085 550.430793 380.414619 550.819882 C 379.850502 482.909847 324.818167 427.988373 256.858293 427.593759 Z M 256.858293 427.593759 " transform="matrix(0.249949,-0.0973543,0.103532,0.235034,24.38433,-23.567046)"/>
<path style="fill-rule:nonzero;fill:rgb(66.666667%,0%,0%);fill-opacity:1;stroke-width:2.5;stroke-linecap:butt;stroke-linejoin:miter;stroke:rgb(100%,0%,0%);stroke-opacity:1;stroke-miterlimit:4;" d="M 257.202355 677.25134 C 325.123657 676.682641 380.036177 621.646864 380.431083 553.68533 C 312.509782 554.25403 257.597261 609.289807 257.202355 677.25134 Z M 257.202355 677.25134 " transform="matrix(0.249949,-0.0973543,0.103532,0.235034,24.38433,-23.567046)"/>
<path style="fill-rule:nonzero;fill:rgb(66.666667%,0%,0%);fill-opacity:1;stroke-width:2.5;stroke-linecap:butt;stroke-linejoin:miter;stroke:rgb(100%,0%,0%);stroke-opacity:1;stroke-miterlimit:4;" d="M 506.063532 427.25915 C 438.15557 427.833374 383.24305 482.869152 382.85402 550.816499 C 450.756106 550.25646 505.687841 495.212022 506.063532 427.25915 Z M 506.063532 427.25915 " transform="matrix(0.249949,-0.0973543,0.103532,0.235034,24.38433,-23.567046)"/>
<path style="fill-rule:nonzero;fill:rgb(66.666667%,0%,0%);fill-opacity:1;stroke-width:2.5;stroke-linecap:butt;stroke-linejoin:miter;stroke:rgb(100%,0%,0%);stroke-opacity:1;stroke-miterlimit:4;" d="M 382.857144 553.676422 C 383.421261 621.586457 438.453597 676.507931 506.41347 676.902545 C 505.836013 608.986984 450.803678 554.065511 382.857144 553.676422 Z M 382.857144 553.676422 " transform="matrix(0.249949,-0.0973543,0.103532,0.235034,24.38433,-23.567046)"/>
<path style="fill-rule:nonzero;fill:rgb(66.666667%,0%,0%);fill-opacity:1;stroke-width:2.5;stroke-linecap:butt;stroke-linejoin:miter;stroke:rgb(100%,0%,0%);stroke-opacity:1;stroke-miterlimit:4;" d="M 256.856077 427.600105 C 257.431974 495.516145 312.467681 550.423022 380.421764 550.812612 C 379.851393 482.909911 324.810161 427.989694 256.856077 427.600105 Z M 256.856077 427.600105 " transform="matrix(0.103532,-0.235034,0.249949,0.0973543,-0.596003,105.010745)"/>
<path style="fill-rule:nonzero;fill:rgb(66.666667%,0%,0%);fill-opacity:1;stroke-width:2.5;stroke-linecap:butt;stroke-linejoin:miter;stroke:rgb(100%,0%,0%);stroke-opacity:1;stroke-miterlimit:4;" d="M 257.206742 677.256019 C 325.124817 676.675947 380.043071 621.640197 380.431232 553.684279 C 312.513157 554.264351 257.594903 609.300101 257.206742 677.256019 Z M 257.206742 677.256019 " transform="matrix(0.103532,-0.235034,0.249949,0.0973543,-0.596003,105.010745)"/>
<path style="fill-rule:nonzero;fill:rgb(66.666667%,0%,0%);fill-opacity:1;stroke-width:2.5;stroke-linecap:butt;stroke-linejoin:miter;stroke:rgb(100%,0%,0%);stroke-opacity:1;stroke-miterlimit:4;" d="M 506.062376 427.255915 C 438.158487 427.83011 383.240233 482.865861 382.852071 550.821779 C 450.761486 550.260923 505.674215 495.211832 506.062376 427.255915 Z M 506.062376 427.255915 " transform="matrix(0.103532,-0.235034,0.249949,0.0973543,-0.596003,105.010745)"/>
<path style="fill-rule:nonzero;fill:rgb(66.666667%,0%,0%);fill-opacity:1;stroke-width:2.5;stroke-linecap:butt;stroke-linejoin:miter;stroke:rgb(100%,0%,0%);stroke-opacity:1;stroke-miterlimit:4;" d="M 382.856014 553.680106 C 383.426386 621.582807 438.453432 676.5089 506.407515 676.89849 C 505.851329 608.989913 450.810098 554.069696 382.856014 553.680106 Z M 382.856014 553.680106 " transform="matrix(0.103532,-0.235034,0.249949,0.0973543,-0.596003,105.010745)"/>
<path style="fill-rule:nonzero;fill:rgb(100%,100%,100%);fill-opacity:1;stroke-width:1.1817;stroke-linecap:butt;stroke-linejoin:miter;stroke:rgb(0%,0%,0%);stroke-opacity:1;stroke-miterlimit:4;" d="M 411.892589 116.669462 L 433.730074 116.669462 C 435.874257 116.669462 437.613505 118.408475 437.613505 120.553257 L 437.613505 142.389455 C 437.613505 144.534237 435.874257 146.273249 433.730074 146.273249 L 411.892589 146.273249 C 409.748406 146.273249 408.010318 144.534237 408.010318 142.389455 L 408.010318 120.553257 C 408.010318 118.408475 409.748406 116.669462 411.892589 116.669462 Z M 411.892589 116.669462 " transform="matrix(3.366667,0,0,3.369369,-572.517551,-378.106419)"/>
<path style="fill-rule:nonzero;fill:rgb(66.666667%,0%,0%);fill-opacity:1;stroke-width:2.5;stroke-linecap:butt;stroke-linejoin:miter;stroke:rgb(100%,0%,0%);stroke-opacity:1;stroke-miterlimit:4;" d="M 256.859018 427.597353 C 257.436474 495.512914 312.46881 550.434388 380.415344 550.823476 C 379.851226 482.913441 324.818891 427.991968 256.859018 427.597353 Z M 256.859018 427.597353 " transform="matrix(0.249949,-0.0973543,0.103532,0.235034,698.395496,-27.778758)"/>
<path style="fill-rule:nonzero;fill:rgb(66.666667%,0%,0%);fill-opacity:1;stroke-width:2.5;stroke-linecap:butt;stroke-linejoin:miter;stroke:rgb(100%,0%,0%);stroke-opacity:1;stroke-miterlimit:4;" d="M 257.20308 677.254935 C 325.111042 676.68071 380.042778 621.636272 380.431807 553.688925 C 312.510506 554.257624 257.597986 609.293401 257.20308 677.254935 Z M 257.20308 677.254935 " transform="matrix(0.249949,-0.0973543,0.103532,0.235034,698.395496,-27.778758)"/>
<path style="fill-rule:nonzero;fill:rgb(66.666667%,0%,0%);fill-opacity:1;stroke-width:2.5;stroke-linecap:butt;stroke-linejoin:miter;stroke:rgb(100%,0%,0%);stroke-opacity:1;stroke-miterlimit:4;" d="M 506.064256 427.262744 C 438.156295 427.836968 383.243774 482.872746 382.854744 550.820093 C 450.762706 550.245869 505.675226 495.210091 506.064256 427.262744 Z M 506.064256 427.262744 " transform="matrix(0.249949,-0.0973543,0.103532,0.235034,698.395496,-27.778758)"/>
<path style="fill-rule:nonzero;fill:rgb(66.666667%,0%,0%);fill-opacity:1;stroke-width:2.5;stroke-linecap:butt;stroke-linejoin:miter;stroke:rgb(100%,0%,0%);stroke-opacity:1;stroke-miterlimit:4;" d="M 382.844529 553.674491 C 383.421986 621.590051 438.454321 676.511525 506.414195 676.906139 C 505.836738 608.990578 450.804403 554.069105 382.844529 553.674491 Z M 382.844529 553.674491 " transform="matrix(0.249949,-0.0973543,0.103532,0.235034,698.395496,-27.778758)"/>
<path style="fill-rule:nonzero;fill:rgb(66.666667%,0%,0%);fill-opacity:1;stroke-width:2.5;stroke-linecap:butt;stroke-linejoin:miter;stroke:rgb(100%,0%,0%);stroke-opacity:1;stroke-miterlimit:4;" d="M 256.854048 427.603158 C 257.42442 495.505859 312.465652 550.426076 380.419735 550.815666 C 379.849363 482.912965 324.808132 427.992748 256.854048 427.603158 Z M 256.854048 427.603158 " transform="matrix(0.103532,-0.235034,0.249949,0.0973543,673.415163,100.799034)"/>
<path style="fill-rule:nonzero;fill:rgb(66.666667%,0%,0%);fill-opacity:1;stroke-width:2.5;stroke-linecap:butt;stroke-linejoin:miter;stroke:rgb(100%,0%,0%);stroke-opacity:1;stroke-miterlimit:4;" d="M 257.218899 677.253197 C 325.122788 676.679001 380.041042 621.64325 380.429203 553.687333 C 312.525314 554.261528 257.60706 609.297279 257.218899 677.253197 Z M 257.218899 677.253197 " transform="matrix(0.103532,-0.235034,0.249949,0.0973543,673.415163,100.799034)"/>
<path style="fill-rule:nonzero;fill:rgb(66.666667%,0%,0%);fill-opacity:1;stroke-width:2.5;stroke-linecap:butt;stroke-linejoin:miter;stroke:rgb(100%,0%,0%);stroke-opacity:1;stroke-miterlimit:4;" d="M 506.074533 427.253093 C 438.156458 427.833164 383.238204 482.868915 382.850042 550.824832 C 450.768117 550.244761 505.672185 495.214886 506.074533 427.253093 Z M 506.074533 427.253093 " transform="matrix(0.103532,-0.235034,0.249949,0.0973543,673.415163,100.799034)"/>
<path style="fill-rule:nonzero;fill:rgb(66.666667%,0%,0%);fill-opacity:1;stroke-width:2.5;stroke-linecap:butt;stroke-linejoin:miter;stroke:rgb(100%,0%,0%);stroke-opacity:1;stroke-miterlimit:4;" d="M 382.853985 553.68316 C 383.424357 621.585861 438.465588 676.506078 506.405486 676.901543 C 505.843775 608.979627 450.808068 554.07275 382.853985 553.68316 Z M 382.853985 553.68316 " transform="matrix(0.103532,-0.235034,0.249949,0.0973543,673.415163,100.799034)"/>
<path style="fill-rule:nonzero;fill:rgb(100%,100%,100%);fill-opacity:1;stroke-width:1.1817;stroke-linecap:butt;stroke-linejoin:miter;stroke:rgb(0%,0%,0%);stroke-opacity:1;stroke-miterlimit:4;" d="M 304.542587 152.4499 L 326.380071 152.4499 C 328.524254 152.4499 330.263502 154.188913 330.263502 156.332535 L 330.263502 178.169893 C 330.263502 180.314675 328.524254 182.052528 326.380071 182.052528 L 304.542587 182.052528 C 302.398403 182.052528 300.660316 180.314675 300.660316 178.169893 L 300.660316 156.332535 C 300.660316 154.188913 302.398403 152.4499 304.542587 152.4499 Z M 304.542587 152.4499 " transform="matrix(3.366667,0,0,3.369369,-548.101969,-373.902211)"/>
<path style="fill-rule:nonzero;fill:rgb(66.666667%,0%,0%);fill-opacity:1;stroke-width:2.5;stroke-linecap:butt;stroke-linejoin:miter;stroke:rgb(100%,0%,0%);stroke-opacity:1;stroke-miterlimit:4;" d="M 256.866455 427.595228 C 257.430572 495.505264 312.462908 550.426737 380.422781 550.821351 C 379.845324 482.905791 324.812989 427.984317 256.866455 427.595228 Z M 256.866455 427.595228 " transform="matrix(0.249949,-0.0973543,0.103532,0.235034,361.38995,96.995903)"/>
<path style="fill-rule:nonzero;fill:rgb(66.666667%,0%,0%);fill-opacity:1;stroke-width:2.5;stroke-linecap:butt;stroke-linejoin:miter;stroke:rgb(100%,0%,0%);stroke-opacity:1;stroke-miterlimit:4;" d="M 257.210517 677.25281 C 325.118479 676.678585 380.044339 621.648333 380.425905 553.681274 C 312.517944 554.255499 257.605423 609.291276 257.210517 677.25281 Z M 257.210517 677.25281 " transform="matrix(0.249949,-0.0973543,0.103532,0.235034,361.38995,96.995903)"/>
<path style="fill-rule:nonzero;fill:rgb(66.666667%,0%,0%);fill-opacity:1;stroke-width:2.5;stroke-linecap:butt;stroke-linejoin:miter;stroke:rgb(100%,0%,0%);stroke-opacity:1;stroke-miterlimit:4;" d="M 506.071694 427.260619 C 438.163732 427.834843 383.237872 482.865096 382.848842 550.812443 C 450.764268 550.25793 505.682664 495.207966 506.071694 427.260619 Z M 506.071694 427.260619 " transform="matrix(0.249949,-0.0973543,0.103532,0.235034,361.38995,96.995903)"/>
<path style="fill-rule:nonzero;fill:rgb(66.666667%,0%,0%);fill-opacity:1;stroke-width:2.5;stroke-linecap:butt;stroke-linejoin:miter;stroke:rgb(100%,0%,0%);stroke-opacity:1;stroke-miterlimit:4;" d="M 382.846091 553.686552 C 383.429423 621.587926 438.461759 676.5094 506.408293 676.898489 C 505.844175 608.988453 450.81184 554.06698 382.846091 553.686552 Z M 382.846091 553.686552 " transform="matrix(0.249949,-0.0973543,0.103532,0.235034,361.38995,96.995903)"/>
<path style="fill-rule:nonzero;fill:rgb(66.666667%,0%,0%);fill-opacity:1;stroke-width:2.5;stroke-linecap:butt;stroke-linejoin:miter;stroke:rgb(100%,0%,0%);stroke-opacity:1;stroke-miterlimit:4;" d="M 256.86081 427.606915 C 257.431182 495.509615 312.472413 550.429832 380.426497 550.819422 C 379.8506 482.903382 324.814893 427.996505 256.86081 427.606915 Z M 256.86081 427.606915 " transform="matrix(0.103532,-0.235034,0.249949,0.0973543,336.409618,225.573695)"/>
<path style="fill-rule:nonzero;fill:rgb(66.666667%,0%,0%);fill-opacity:1;stroke-width:2.5;stroke-linecap:butt;stroke-linejoin:miter;stroke:rgb(100%,0%,0%);stroke-opacity:1;stroke-miterlimit:4;" d="M 257.205949 677.24949 C 325.124024 676.669418 380.042278 621.633667 380.435965 553.691089 C 312.512365 554.257821 257.59411 609.293572 257.205949 677.24949 Z M 257.205949 677.24949 " transform="matrix(0.103532,-0.235034,0.249949,0.0973543,336.409618,225.573695)"/>
<path style="fill-rule:nonzero;fill:rgb(66.666667%,0%,0%);fill-opacity:1;stroke-width:2.5;stroke-linecap:butt;stroke-linejoin:miter;stroke:rgb(100%,0%,0%);stroke-opacity:1;stroke-miterlimit:4;" d="M 506.067109 427.262725 C 438.16322 427.836921 383.244965 482.872671 382.851279 550.815249 C 450.760693 550.254393 505.678947 495.218643 506.067109 427.262725 Z M 506.067109 427.262725 " transform="matrix(0.103532,-0.235034,0.249949,0.0973543,336.409618,225.573695)"/>
<path style="fill-rule:nonzero;fill:rgb(66.666667%,0%,0%);fill-opacity:1;stroke-width:2.5;stroke-linecap:butt;stroke-linejoin:miter;stroke:rgb(100%,0%,0%);stroke-opacity:1;stroke-miterlimit:4;" d="M 382.855221 553.673577 C 383.431118 621.589617 438.458164 676.51571 506.412247 676.9053 C 505.836351 608.98926 450.809305 554.063167 382.855221 553.673577 Z M 382.855221 553.673577 " transform="matrix(0.103532,-0.235034,0.249949,0.0973543,336.409618,225.573695)"/>
<path style="fill-rule:nonzero;fill:rgb(100%,100%,100%);fill-opacity:1;stroke-width:1.1817;stroke-linecap:butt;stroke-linejoin:miter;stroke:rgb(0%,0%,0%);stroke-opacity:1;stroke-miterlimit:4;" d="M 411.802595 188.240255 L 433.64008 188.240255 C 435.784263 188.240255 437.523511 189.978108 437.523511 192.12289 L 437.523511 213.960248 C 437.523511 216.10503 435.784263 217.842883 433.64008 217.842883 L 411.802595 217.842883 C 409.658412 217.842883 407.920324 216.10503 407.920324 213.960248 L 407.920324 192.12289 C 407.920324 189.978108 409.658412 188.240255 411.802595 188.240255 Z M 411.802595 188.240255 " transform="matrix(3.366667,0,0,3.369369,-572.198946,-378.106419)"/>
<path style="fill-rule:nonzero;fill:rgb(66.666667%,0%,0%);fill-opacity:1;stroke-width:2.5;stroke-linecap:butt;stroke-linejoin:miter;stroke:rgb(100%,0%,0%);stroke-opacity:1;stroke-miterlimit:4;" d="M 256.859344 427.596403 C 257.436801 495.511964 312.469136 550.433437 380.41567 550.822526 C 379.851553 482.91249 324.819218 427.991017 256.859344 427.596403 Z M 256.859344 427.596403 " transform="matrix(0.249949,-0.0973543,0.103532,0.235034,698.395512,213.362122)"/>
<path style="fill-rule:nonzero;fill:rgb(66.666667%,0%,0%);fill-opacity:1;stroke-width:2.5;stroke-linecap:butt;stroke-linejoin:miter;stroke:rgb(100%,0%,0%);stroke-opacity:1;stroke-miterlimit:4;" d="M 257.203406 677.253984 C 325.111368 676.679759 380.043104 621.635321 380.432134 553.687974 C 312.510832 554.256673 257.598312 609.292451 257.203406 677.253984 Z M 257.203406 677.253984 " transform="matrix(0.249949,-0.0973543,0.103532,0.235034,698.395512,213.362122)"/>
<path style="fill-rule:nonzero;fill:rgb(66.666667%,0%,0%);fill-opacity:1;stroke-width:2.5;stroke-linecap:butt;stroke-linejoin:miter;stroke:rgb(100%,0%,0%);stroke-opacity:1;stroke-miterlimit:4;" d="M 506.064583 427.261793 C 438.156621 427.836018 383.244101 482.871796 382.855071 550.819143 C 450.763033 550.244918 505.675553 495.20914 506.064583 427.261793 Z M 506.064583 427.261793 " transform="matrix(0.249949,-0.0973543,0.103532,0.235034,698.395512,213.362122)"/>
<path style="fill-rule:nonzero;fill:rgb(66.666667%,0%,0%);fill-opacity:1;stroke-width:2.5;stroke-linecap:butt;stroke-linejoin:miter;stroke:rgb(100%,0%,0%);stroke-opacity:1;stroke-miterlimit:4;" d="M 382.858195 553.679066 C 383.422312 621.589101 438.454647 676.510574 506.414521 676.905188 C 505.837064 608.989628 450.804729 554.068154 382.858195 553.679066 Z M 382.858195 553.679066 " transform="matrix(0.249949,-0.0973543,0.103532,0.235034,698.395512,213.362122)"/>
<path style="fill-rule:nonzero;fill:rgb(66.666667%,0%,0%);fill-opacity:1;stroke-width:2.5;stroke-linecap:butt;stroke-linejoin:miter;stroke:rgb(100%,0%,0%);stroke-opacity:1;stroke-miterlimit:4;" d="M 256.854951 427.602717 C 257.425323 495.505418 312.466555 550.425635 380.420638 550.815224 C 379.850266 482.912524 324.809035 427.992307 256.854951 427.602717 Z M 256.854951 427.602717 " transform="matrix(0.103532,-0.235034,0.249949,0.0973543,673.41518,341.939914)"/>
<path style="fill-rule:nonzero;fill:rgb(66.666667%,0%,0%);fill-opacity:1;stroke-width:2.5;stroke-linecap:butt;stroke-linejoin:miter;stroke:rgb(100%,0%,0%);stroke-opacity:1;stroke-miterlimit:4;" d="M 257.205616 677.258631 C 325.12369 676.67856 380.041945 621.642809 380.430106 553.686891 C 312.512031 554.266963 257.607963 609.296838 257.205616 677.258631 Z M 257.205616 677.258631 " transform="matrix(0.103532,-0.235034,0.249949,0.0973543,673.41518,341.939914)"/>
<path style="fill-rule:nonzero;fill:rgb(66.666667%,0%,0%);fill-opacity:1;stroke-width:2.5;stroke-linecap:butt;stroke-linejoin:miter;stroke:rgb(100%,0%,0%);stroke-opacity:1;stroke-miterlimit:4;" d="M 506.06125 427.258527 C 438.157361 427.832723 383.239107 482.868474 382.850945 550.824391 C 450.76902 550.244319 505.673088 495.214445 506.06125 427.258527 Z M 506.06125 427.258527 " transform="matrix(0.103532,-0.235034,0.249949,0.0973543,673.41518,341.939914)"/>
<path style="fill-rule:nonzero;fill:rgb(66.666667%,0%,0%);fill-opacity:1;stroke-width:2.5;stroke-linecap:butt;stroke-linejoin:miter;stroke:rgb(100%,0%,0%);stroke-opacity:1;stroke-miterlimit:4;" d="M 382.854888 553.682719 C 383.42526 621.585419 438.452305 676.511512 506.406389 676.901102 C 505.844678 608.979186 450.808971 554.072309 382.854888 553.682719 Z M 382.854888 553.682719 " transform="matrix(0.103532,-0.235034,0.249949,0.0973543,673.41518,341.939914)"/>
</g>
</svg>
